REM DIRINDEX 1\2,1\3,1\4,1\5
REM DIRNAME cjc005,folder01,folder02,folder03,folder04
TITLE ""
FILE "P1Q_t_1023-1032.mp3" MP3
  TRACK 01 AUDIO
    TITLE "3:cjc005_3974"
    INDEX 01 00:00:00
  TRACK 02 AUDIO
    TITLE "0:"
    INDEX 01 00:00:72
  TRACK 03 AUDIO
    TITLE "4:cjc005_3975"
    INDEX 01 00:01:24
  TRACK 04 AUDIO
    TITLE "0:"
    INDEX 01 00:02:47
  TRACK 05 AUDIO
    TITLE "5:cjc005_3976"
    INDEX 01 00:02:73
  TRACK 06 AUDIO
    TITLE "0:"
    INDEX 01 00:06:65
  TRACK 07 AUDIO
    TITLE "3:cjc005_3977"
    INDEX 01 00:07:49
  TRACK 08 AUDIO
    TITLE "0:"
    INDEX 01 00:08:56
  TRACK 09 AUDIO
    TITLE "4:cjc005_3978"
    INDEX 01 00:09:10
  TRACK 10 AUDIO
    TITLE "0:"
    INDEX 01 00:10:51
  TRACK 11 AUDIO
    TITLE "5:cjc005_3979"
    INDEX 01 00:11:05
  TRACK 12 AUDIO
    TITLE "0:"
    INDEX 01 00:14:41
  TRACK 13 AUDIO
    TITLE "3:cjc005_3980"
    INDEX 01 00:15:19
  TRACK 14 AUDIO
    TITLE "0:"
    INDEX 01 00:16:28
  TRACK 15 AUDIO
    TITLE "4:cjc005_3981"
    INDEX 01 00:16:61
  TRACK 16 AUDIO
    TITLE "0:"
    INDEX 01 00:17:65
  TRACK 17 AUDIO
    TITLE "5:cjc005_3982"
    INDEX 01 00:18:15
  TRACK 18 AUDIO
    TITLE "0:"
    INDEX 01 00:21:57
  TRACK 19 AUDIO
    TITLE "3:cjc005_3983"
    INDEX 01 00:22:40
  TRACK 20 AUDIO
    TITLE "0:"
    INDEX 01 00:23:69
  TRACK 21 AUDIO
    TITLE "4:cjc005_3984"
    INDEX 01 00:24:20
  TRACK 22 AUDIO
    TITLE "0:"
    INDEX 01 00:26:28
  TRACK 23 AUDIO
    TITLE "5:cjc005_3985"
    INDEX 01 00:26:56
  TRACK 24 AUDIO
    TITLE "0:"
    INDEX 01 00:30:38
  TRACK 25 AUDIO
    TITLE "3:cjc005_3986"
    INDEX 01 00:31:22
  TRACK 26 AUDIO
    TITLE "0:"
    INDEX 01 00:32:48
  TRACK 27 AUDIO
    TITLE "4:cjc005_3987"
    INDEX 01 00:32:72
  TRACK 28 AUDIO
    TITLE "0:"
    INDEX 01 00:34:49
  TRACK 29 AUDIO
    TITLE "5:cjc005_3988"
    INDEX 01 00:34:69
  TRACK 30 AUDIO
    TITLE "0:"
    INDEX 01 00:39:13
  TRACK 31 AUDIO
    TITLE "3:cjc005_3989"
    INDEX 01 00:39:62
  TRACK 32 AUDIO
    TITLE "0:"
    INDEX 01 00:41:12
  TRACK 33 AUDIO
    TITLE "4:cjc005_3990"
    INDEX 01 00:41:42
  TRACK 34 AUDIO
    TITLE "0:"
    INDEX 01 00:42:55
  TRACK 35 AUDIO
    TITLE "5:cjc005_3991"
    INDEX 01 00:43:05
  TRACK 36 AUDIO
    TITLE "0:"
    INDEX 01 00:47:19
  TRACK 37 AUDIO
    TITLE "3:cjc005_3992"
    INDEX 01 00:47:70
  TRACK 38 AUDIO
    TITLE "0:"
    INDEX 01 00:49:00
  TRACK 39 AUDIO
    TITLE "4:cjc005_3993"
    INDEX 01 00:49:27
  TRACK 40 AUDIO
    TITLE "0:"
    INDEX 01 00:50:42
  TRACK 41 AUDIO
    TITLE "5:cjc005_3994"
    INDEX 01 00:50:70
  TRACK 42 AUDIO
    TITLE "0:"
    INDEX 01 00:54:72
  TRACK 43 AUDIO
    TITLE "3:cjc005_3995"
    INDEX 01 00:55:53
  TRACK 44 AUDIO
    TITLE "0:"
    INDEX 01 00:56:71
  TRACK 45 AUDIO
    TITLE "4:cjc005_3996"
    INDEX 01 00:57:25
  TRACK 46 AUDIO
    TITLE "0:"
    INDEX 01 00:58:44
  TRACK 47 AUDIO
    TITLE "5:cjc005_3997"
    INDEX 01 00:58:71
  TRACK 48 AUDIO
    TITLE "0:"
    INDEX 01 01:03:16
  TRACK 49 AUDIO
    TITLE "3:cjc005_3998"
    INDEX 01 01:03:73
  TRACK 50 AUDIO
    TITLE "0:"
    INDEX 01 01:05:01
  TRACK 51 AUDIO
    TITLE "4:cjc005_3999"
    INDEX 01 01:05:36
  TRACK 52 AUDIO
    TITLE "0:"
    INDEX 01 01:06:63
  TRACK 53 AUDIO
    TITLE "5:cjc005_4000"
    INDEX 01 01:07:14
  TRACK 54 AUDIO
    TITLE "0:"
    INDEX 01 01:11:35
  TRACK 55 AUDIO
    TITLE "3:cjc005_4001"
    INDEX 01 01:12:13
  TRACK 56 AUDIO
    TITLE "0:"
    INDEX 01 01:13:18
  TRACK 57 AUDIO
    TITLE "4:cjc005_4002"
    INDEX 01 01:13:40
  TRACK 58 AUDIO
    TITLE "0:"
    INDEX 01 01:14:51
  TRACK 59 AUDIO
    TITLE "5:cjc005_4003"
    INDEX 01 01:14:72
  TRACK 60 AUDIO
    TITLE "0:"
    INDEX 01 01:18:06
